<svg width="32" height="32" viewBox="0 0 32 32" fill="none" xmlns="http://www.w3.org/2000/svg">
    <path d="M21.3334 9.33333C21.3334 10.7478 20.7715 12.1044 19.7713 13.1046C18.7711 14.1048 17.4146 14.6667 16.0001 14.6667C14.5856 14.6667 13.229 14.1048 12.2288 13.1046C11.2287 12.1044 10.6667 10.7478 10.6667 9.33333C10.6667 7.91885 11.2287 6.56229 12.2288 5.5621C13.229 4.5619 14.5856 4 16.0001 4C17.4146 4 18.7711 4.5619 19.7713 5.5621C20.7715 6.56229 21.3334 7.91885 21.3334 9.33333ZM16.0001 18.6667C13.5247 18.6667 11.1508 19.65 9.40042 21.4003C7.65008 23.1507 6.66675 25.5246 6.66675 28H25.3334C25.3334 25.5246 24.3501 23.1507 22.5997 21.4003C20.8494 19.65 18.4754 18.6667 16.0001 18.6667Z" fill="#32B768"/>
</svg>
